<?xml version="1.0" encoding="UTF-8" standalone="no"?>
<!-- Created with Inkscape (http://www.inkscape.org/) -->

<svg
   xmlns:dc="http://purl.org/dc/elements/1.1/"
   xmlns:cc="http://creativecommons.org/ns#"
   xmlns:rdf="http://www.w3.org/1999/02/22-rdf-syntax-ns#"
   xmlns:svg="http://www.w3.org/2000/svg"
   xmlns="http://www.w3.org/2000/svg"
   xmlns:sodipodi="http://sodipodi.sourceforge.net/DTD/sodipodi-0.dtd"
   xmlns:inkscape="http://www.inkscape.org/namespaces/inkscape"
   width="210mm"
   height="297mm"
   viewBox="0 0 210 297"
   version="1.1"
   id="svg5721"
   inkscape:version="0.92.2 (5c3e80d, 2017-08-06)"
   sodipodi:docname="Children.svg">
  <defs
     id="defs5715" />
  <sodipodi:namedview
     id="base"
     pagecolor="#ffffff"
     bordercolor="#666666"
     borderopacity="1.0"
     inkscape:pageopacity="0.0"
     inkscape:pageshadow="2"
     inkscape:zoom="1.4"
     inkscape:cx="278.81111"
     inkscape:cy="896.32655"
     inkscape:document-units="mm"
     inkscape:current-layer="layer1-9"
     showgrid="false"
     inkscape:window-width="1920"
     inkscape:window-height="1017"
     inkscape:window-x="-8"
     inkscape:window-y="-8"
     inkscape:window-maximized="1" />
  <metadata
     id="metadata5718">
    <rdf:RDF>
      <cc:Work
         rdf:about="">
        <dc:format>image/svg+xml</dc:format>
        <dc:type
           rdf:resource="http://purl.org/dc/dcmitype/StillImage" />
        <dc:title />
      </cc:Work>
    </rdf:RDF>
  </metadata>
  <g
     inkscape:label="Ebene 1"
     inkscape:groupmode="layer"
     id="layer1">
    <g
       id="layer1-9"
       inkscape:label="Layer 1"
       transform="translate(-48.862998,-50.285708)">
      <g
         style="fill:#ffffff;stroke:none"
         id="g919"
         transform="matrix(-4.5161277,0,0,3.5256883,711.91052,-84.024912)">
        <path
           style="opacity:1;fill:#ffffff;fill-opacity:1;fill-rule:nonzero;stroke:none;stroke-width:70.79704285;stroke-linecap:round;stroke-linejoin:round;stroke-miterlimit:4;stroke-dasharray:none;stroke-dashoffset:0;stroke-opacity:1"
           d="M 92.501953 209.08594 C 70.570555 209.08594 52.914062 222.8687 52.914062 239.99023 L 52.914062 279.32422 C 52.914062 294.97846 67.676685 307.83589 86.96875 309.92578 A 34.01575 34.015749 0 0 1 120.46094 281.64453 A 34.01575 34.015749 0 0 1 154.02539 310.23047 L 244.35742 310.23047 A 34.015748 34.015748 0 0 1 277.88672 281.69922 A 34.015748 34.015748 0 0 1 311.125 308.67383 C 326.91892 304.61702 338.26562 293.04646 338.26562 279.32422 L 338.26562 239.99023 C 338.26562 222.8687 320.60897 209.08594 298.67773 209.08594 L 92.501953 209.08594 z "
           transform="matrix(-0.05858633,0,0,0.07504445,146.81771,38.094865)"
           id="rect915" />
        <path
           style="opacity:1;fill:#ffffff;fill-opacity:1;fill-rule:nonzero;stroke:none;stroke-width:62.83929825;stroke-linecap:round;stroke-linejoin:round;stroke-miterlimit:4;stroke-dasharray:none;stroke-dashoffset:0;stroke-opacity:1"
           d="M 88.072266 112.61133 C 68.595066 112.61133 52.914062 124.85297 52.914062 140.05859 L 52.914062 282.7832 C 52.914062 297.81748 68.246331 309.94713 87.417969 310.21875 A 34.015748 34.015748 0 0 1 120.94531 281.69922 A 34.015748 34.015748 0 0 1 153.23242 305.14844 C 162.16435 300.18092 167.97461 292.03447 167.97461 282.7832 L 167.97461 140.05859 C 167.97461 124.85297 152.29556 112.61133 132.81836 112.61133 L 88.072266 112.61133 z M 69.099609 138 L 94.271484 138 C 96.517554 138 98.326172 139.80862 98.326172 142.05469 L 98.326172 196.11133 C 98.326172 198.3574 96.517554 200.16602 94.271484 200.16602 L 69.099609 200.16602 C 66.853539 200.16602 65.044922 198.3574 65.044922 196.11133 L 65.044922 142.05469 C 65.044922 139.80862 66.853539 138 69.099609 138 z M 120.40625 138 L 145.57812 138 C 147.82421 138 149.63086 139.80862 149.63086 142.05469 L 149.63086 196.11133 C 149.63086 198.35743 147.82421 200.16602 145.57812 200.16602 L 120.40625 200.16602 C 118.16018 200.16602 116.35156 198.35743 116.35156 196.11133 L 116.35156 142.05469 C 116.35156 139.80862 118.16018 138 120.40625 138 z "
           transform="matrix(-0.05858633,0,0,0.07504445,146.81771,38.094865)"
           id="rect917" />
      </g>
      <circle
         style="opacity:1;fill:#ffffff;fill-opacity:1;fill-rule:nonzero;stroke:none;stroke-width:4.87164927;stroke-linecap:round;stroke-linejoin:round;stroke-miterlimit:4;stroke-dasharray:none;stroke-dashoffset:0;stroke-opacity:1"
         id="circle961"
         cx="121.45528"
         cy="69.086029"
         r="11.433121" />
      <rect
         style="opacity:1;fill:#ffffff;fill-opacity:1;fill-rule:nonzero;stroke:none;stroke-width:7;stroke-linecap:round;stroke-linejoin:round;stroke-miterlimit:4;stroke-dasharray:none;stroke-dashoffset:0;stroke-opacity:1"
         id="rect966"
         width="16.447983"
         height="25.615711"
         x="112.98816"
         y="82.406601"
         ry="2.0222924" />
      <rect
         style="opacity:1;fill:#f9f9f9;fill-opacity:1;fill-rule:nonzero;stroke:none;stroke-width:5.48262215;stroke-linecap:round;stroke-linejoin:round;stroke-miterlimit:4;stroke-dasharray:none;stroke-dashoffset:0;stroke-opacity:1"
         id="rect972"
         width="4.0445967"
         height="30.435535"
         x="132.86951"
         y="43.621887"
         ry="1.984925"
         transform="rotate(17.929392)" />
      <rect
         transform="matrix(-0.95143661,0.30784473,0.30784473,0.95143661,0,0)"
         ry="1.984925"
         y="118.25086"
         x="-97.78186"
         height="30.435535"
         width="4.0445967"
         id="rect974"
         style="opacity:1;fill:#ffffff;fill-opacity:1;fill-rule:nonzero;stroke:none;stroke-width:5.48262215;stroke-linecap:round;stroke-linejoin:round;stroke-miterlimit:4;stroke-dasharray:none;stroke-dashoffset:0;stroke-opacity:1" />
      <circle
         r="7.0766091"
         cy="84.42511"
         cx="103.19894"
         id="circle976"
         style="opacity:1;fill:#f9f9f9;fill-opacity:1;fill-rule:nonzero;stroke:none;stroke-width:3.01534104;stroke-linecap:round;stroke-linejoin:round;stroke-miterlimit:4;stroke-dasharray:none;stroke-dashoffset:0;stroke-opacity:1" />
      <rect
         ry="1.2517118"
         y="92.669983"
         x="97.958153"
         height="15.855021"
         width="10.180593"
         id="rect980"
         style="opacity:1;fill:#f9f9f9;fill-opacity:1;fill-rule:nonzero;stroke:none;stroke-width:4.33269835;stroke-linecap:round;stroke-linejoin:round;stroke-miterlimit:4;stroke-dasharray:none;stroke-dashoffset:0;stroke-opacity:1" />
      <rect
         transform="rotate(64.174839)"
         ry="1.2285831"
         y="-49.114243"
         x="126.81373"
         height="18.838285"
         width="2.5034311"
         id="rect986"
         style="opacity:1;fill:#ffffff;fill-opacity:1;fill-rule:nonzero;stroke:none;stroke-width:3.39350677;stroke-linecap:round;stroke-linejoin:round;stroke-miterlimit:4;stroke-dasharray:none;stroke-dashoffset:0;stroke-opacity:1" />
      <rect
         style="opacity:1;fill:#ffffff;fill-opacity:1;fill-rule:nonzero;stroke:none;stroke-width:11.28716183;stroke-linecap:round;stroke-linejoin:round;stroke-miterlimit:4;stroke-dasharray:none;stroke-dashoffset:0;stroke-opacity:1"
         id="rect963"
         width="4.0445857"
         height="10.515924"
         x="119.48215"
         y="76.310745"
         ry="5.2579618" />
      <rect
         style="opacity:1;fill:#f9f9f9;fill-opacity:1;fill-rule:nonzero;stroke:none;stroke-width:3.39350677;stroke-linecap:round;stroke-linejoin:round;stroke-miterlimit:4;stroke-dasharray:none;stroke-dashoffset:0;stroke-opacity:1"
         id="rect988"
         width="2.5034311"
         height="18.838285"
         x="-74.25148"
         y="120.99043"
         ry="1.2285831"
         transform="matrix(-0.95143661,0.30784473,0.30784473,0.95143661,0,0)" />
      <rect
         ry="3.2544518"
         y="89.042435"
         x="101.94722"
         height="6.508904"
         width="2.5034242"
         id="rect990"
         style="opacity:1;fill:#f9f9f9;fill-opacity:1;fill-rule:nonzero;stroke:none;stroke-width:6.98626661;stroke-linecap:round;stroke-linejoin:round;stroke-miterlimit:4;stroke-dasharray:none;stroke-dashoffset:0;stroke-opacity:1" />
      <ellipse
         style="opacity:1;fill:#ffffff;fill-opacity:1;fill-rule:nonzero;stroke:#ffffff;stroke-width:1.64240897;stroke-linecap:round;stroke-linejoin:round;stroke-miterlimit:4;stroke-dasharray:none;stroke-dashoffset:0;stroke-opacity:0"
         id="circle923-1"
         cx="80.88044"
         cy="133.7934"
         rx="7.4080777"
         ry="7.3746686" />
      <ellipse
         style="opacity:1;fill:#ffffff;fill-opacity:1;fill-rule:nonzero;stroke:#ffffff;stroke-width:1.64240897;stroke-linecap:round;stroke-linejoin:round;stroke-miterlimit:4;stroke-dasharray:none;stroke-dashoffset:0;stroke-opacity:0"
         id="circle923-1-7"
         cx="122.47224"
         cy="133.80417"
         rx="7.4080782"
         ry="7.3746686" />
    </g>
  </g>
</svg>
